# xmcd
#
# Track frame offsets: 
#        150
#        21802
#        46821
#        77644
#        101773
#        134823
#        152688
#        180979
#        205771
#        234382
#
# Disc length: 3478 seconds
#
# Revision: 0
# Processed by: cddbd v1.5.1PL0 Copyright (c) Steve Scherf et al.
# Submitted via: ExactAudioCopy v0.95a5
#
DISCID=780d940a
DTITLE=Dura and Blues Club - Live at Stara Pekarna
DYEAR=2003
DGENRE=Blues
TTITLE0=KLUD A PIESOK I
TTITLE1=KAPOR
TTITLE2=NA OBCHODNEJ
TTITLE3=NEPLAC DRAHA
TTITLE4=PRECO SI MA VYVOLALA Z KRCMY VON
TTITLE5=NECH JE PRCA
TTITLE6=ZUZA BLUES
TTITLE7=WALKING GOLDFISH BLUES
TTITLE8=STRETNUTIE NA RINGSTRASSE
TTITLE9=KLUD A PIESOK II
EXTD=
EXTT0=
EXTT1=
EXTT2=
EXTT3=
EXTT4=
EXTT5=
EXTT6=
EXTT7=
EXTT8=
EXTT9=
PLAYORDER=
